<svg xmlns="http://www.w3.org/2000/svg" xmlns:xlink="http://www.w3.org/1999/xlink" width="500" zoomAndPan="magnify" viewBox="0 0 375 374.999991" height="500" preserveAspectRatio="xMidYMid meet" version="1.0"><defs><clipPath id="51bb9d8fe2"><path d="M 4.191406 0 L 375 0 L 375 370.808594 L 4.191406 370.808594 Z M 4.191406 0 " clip-rule="nonzero"/></clipPath><clipPath id="e286389969"><path d="M 189.59375 0 C 87.199219 0 4.191406 83.007812 4.191406 185.40625 C 4.191406 287.800781 87.199219 370.808594 189.59375 370.808594 C 291.992188 370.808594 375 287.800781 375 185.40625 C 375 83.007812 291.992188 0 189.59375 0 Z M 189.59375 0 " clip-rule="nonzero"/></clipPath><clipPath id="44297fb733"><path d="M 4.191406 0 L 374.996094 0 L 374.996094 370.808594 L 4.191406 370.808594 Z M 4.191406 0 " clip-rule="nonzero"/></clipPath><clipPath id="8d8a73c65d"><path d="M 189.59375 0 C 87.199219 0 4.191406 83.007812 4.191406 185.402344 C 4.191406 287.800781 87.199219 370.808594 189.59375 370.808594 C 291.988281 370.808594 374.996094 287.800781 374.996094 185.402344 C 374.996094 83.007812 291.988281 0 189.59375 0 Z M 189.59375 0 " clip-rule="nonzero"/></clipPath><clipPath id="b441dd1d22"><path d="M 90 66 L 248 66 L 248 359 L 90 359 Z M 90 66 " clip-rule="nonzero"/></clipPath><clipPath id="071589ae1b"><path d="M 21.007812 215.242188 L 194.140625 42.113281 L 358.617188 206.585938 L 185.484375 379.71875 Z M 21.007812 215.242188 " clip-rule="nonzero"/></clipPath><clipPath id="6c7f8990df"><path d="M 21.007812 215.242188 L 194.140625 42.113281 L 358.617188 206.585938 L 185.484375 379.71875 Z M 21.007812 215.242188 " clip-rule="nonzero"/></clipPath><clipPath id="db37efcd47"><path d="M 21.007812 215.242188 L 194.140625 42.113281 L 358.617188 206.585938 L 185.484375 379.71875 Z M 21.007812 215.242188 " clip-rule="nonzero"/></clipPath></defs><g clip-path="url(#51bb9d8fe2)"><g clip-path="url(#e286389969)"><path fill="#a4ebf3" d="M 4.191406 0 L 375 0 L 375 370.808594 L 4.191406 370.808594 Z M 4.191406 0 " fill-opacity="1" fill-rule="nonzero"/></g></g><g clip-path="url(#44297fb733)"><g clip-path="url(#8d8a73c65d)"><path stroke-linecap="butt" transform="matrix(1.224228, 0, 0, 1.224228, 4.190341, -0.000000000000034795)" fill="none" stroke-linejoin="miter" d="M 151.445137 0.000000000000028422 C 67.805069 0.000000000000028422 0.00087025 67.804199 0.00087025 151.444267 C 0.00087025 235.087527 67.805069 302.891725 151.445137 302.891725 C 235.085206 302.891725 302.889405 235.087527 302.889405 151.444267 C 302.889405 67.804199 235.085206 0.000000000000028422 151.445137 0.000000000000028422 Z M 151.445137 0.000000000000028422 " stroke="#a4ebf3" stroke-width="4.901046" stroke-opacity="1" stroke-miterlimit="4"/></g></g><g clip-path="url(#b441dd1d22)"><g clip-path="url(#071589ae1b)"><g clip-path="url(#6c7f8990df)"><g clip-path="url(#db37efcd47)"><path fill="#25995c" d="M 184.792969 110.09375 C 102.800781 191.347656 97.191406 273.378906 172.539062 356.226562 C 173.484375 357.265625 172.089844 358.769531 170.964844 357.925781 C 141.484375 335.722656 118.636719 311.464844 104.703125 284.449219 C 58.722656 195.285156 132.21875 104.0625 212.042969 67.007812 C 216.023438 65.160156 220.378906 68.339844 219.898438 72.703125 C 210.859375 154.828125 316.804688 248.367188 162.628906 316.089844 C 125.964844 244.765625 128.03125 175.78125 184.792969 110.09375 " fill-opacity="1" fill-rule="evenodd"/></g></g></g></g></svg>